<svg xmlns="http://www.w3.org/2000/svg" xmlns:xlink="http://www.w3.org/1999/xlink" width="1024" zoomAndPan="magnify" viewBox="0 0 768 767.999994" height="1024" preserveAspectRatio="xMidYMid meet" version="1.2"><defs><clipPath id="0f974dd35c"><rect x="0" width="669" y="0" height="272"/></clipPath><clipPath id="bee84228dc"><path d="M 0.839844 69 L 272 69 L 272 232 L 0.839844 232 Z M 0.839844 69 "/></clipPath><clipPath id="a9bd45bcda"><rect x="0" width="475" y="0" height="291"/></clipPath><clipPath id="b915505e8f"><rect x="0" width="55" y="0" height="157"/></clipPath></defs><g id="d976fe9b88"><g transform="matrix(1,0,0,1,50,164)"><g clip-path="url(#0f974dd35c)"><g style="fill:#162b4a;fill-opacity:1;"><g transform="translate(0.876802, 203.074585)"><path style="stroke:none" d="M 14.84375 0 L 14.84375 -192.125 L 93.90625 -192.125 C 127.1875 -192.125 152.820312 -183.847656 170.8125 -167.296875 C 188.800781 -150.753906 197.796875 -127.007812 197.796875 -96.0625 C 197.796875 -65.125 188.800781 -41.378906 170.8125 -24.828125 C 152.820312 -8.273438 127.1875 0 93.90625 0 Z M 59.640625 -36.96875 L 93.90625 -36.96875 C 112.4375 -36.96875 126.691406 -42.050781 136.671875 -52.21875 C 146.660156 -62.382812 151.65625 -77 151.65625 -96.0625 C 151.65625 -115.3125 146.660156 -130.019531 136.671875 -140.1875 C 126.691406 -150.351562 112.4375 -155.4375 93.90625 -155.4375 L 59.640625 -155.4375 Z M 59.640625 -36.96875 "/></g></g><g style="fill:#162b4a;fill-opacity:1;"><g transform="translate(206.757866, 203.074585)"><path style="stroke:none" d="M 53.421875 4.046875 C 39.035156 4.046875 27.207031 0.445312 17.9375 -6.75 C 8.675781 -13.945312 4.046875 -23.476562 4.046875 -35.34375 C 4.046875 -47.21875 9.171875 -57.203125 19.421875 -65.296875 C 29.679688 -73.390625 45.15625 -78.519531 65.84375 -80.6875 L 92.5625 -83.921875 C 95.789062 -84.285156 98.394531 -85.320312 100.375 -87.03125 C 102.351562 -88.738281 103.34375 -91.03125 103.34375 -93.90625 C 103.34375 -99.84375 101.003906 -104.609375 96.328125 -108.203125 C 91.648438 -111.804688 85.625 -113.609375 78.25 -113.609375 C 69.976562 -113.609375 63.144531 -111.039062 57.75 -105.90625 C 52.351562 -100.78125 49.296875 -94.800781 48.578125 -87.96875 L 8.359375 -94.171875 C 9.265625 -103.710938 12.640625 -112.210938 18.484375 -119.671875 C 24.328125 -127.140625 32.285156 -132.988281 42.359375 -137.21875 C 52.441406 -141.445312 64.046875 -143.5625 77.171875 -143.5625 C 97.503906 -143.5625 113.695312 -138.566406 125.75 -128.578125 C 137.800781 -118.597656 143.828125 -104.972656 143.828125 -87.703125 L 143.828125 -34.265625 C 143.828125 -27.609375 146.164062 -24.28125 150.84375 -24.28125 C 154.800781 -24.28125 158.398438 -26.351562 161.640625 -30.5 L 171.34375 -8.640625 C 167.207031 -4.492188 161.859375 -1.34375 155.296875 0.8125 C 148.734375 2.96875 142.300781 4.046875 136 4.046875 C 127.726562 4.046875 120.625 1.800781 114.6875 -2.6875 C 108.75 -7.1875 105.328125 -12.585938 104.421875 -18.890625 L 103.890625 -23.75 L 103.625 -23.75 C 99.125 -15.46875 92.554688 -8.765625 83.921875 -3.640625 C 75.285156 1.484375 65.117188 4.046875 53.421875 4.046875 Z M 69.078125 -24.28125 C 78.796875 -24.28125 86.800781 -27.289062 93.09375 -33.3125 C 99.394531 -39.34375 102.546875 -47.035156 102.546875 -56.390625 L 102.546875 -62.0625 L 76.09375 -59.09375 C 64.582031 -57.832031 56.578125 -55.492188 52.078125 -52.078125 C 47.578125 -48.660156 45.328125 -44.703125 45.328125 -40.203125 C 45.328125 -35.523438 47.578125 -31.703125 52.078125 -28.734375 C 56.578125 -25.765625 62.242188 -24.28125 69.078125 -24.28125 Z M 69.078125 -24.28125 "/></g></g><g style="fill:#162b4a;fill-opacity:1;"><g transform="translate(360.560208, 203.074585)"><path style="stroke:none" d="M 80.953125 5.390625 C 64.398438 5.390625 51.3125 0.804688 41.6875 -8.359375 C 32.0625 -17.535156 27.25 -29.953125 27.25 -45.609375 L 27.25 -106.859375 L 1.34375 -106.859375 L 1.34375 -138.15625 L 27.25 -138.15625 L 27.25 -176.203125 L 68.546875 -185.109375 L 68.546875 -138.15625 L 123.3125 -138.15625 L 123.3125 -106.859375 L 68.546875 -106.859375 L 68.546875 -52.078125 C 68.546875 -44.523438 70.613281 -38.585938 74.75 -34.265625 C 78.882812 -29.953125 84.007812 -27.796875 90.125 -27.796875 C 102.363281 -27.796875 111.71875 -33.734375 118.1875 -45.609375 L 130.609375 -19.703125 C 125.742188 -11.960938 118.769531 -5.84375 109.6875 -1.34375 C 100.601562 3.144531 91.023438 5.390625 80.953125 5.390625 Z M 80.953125 5.390625 "/></g></g><g style="fill:#162b4a;fill-opacity:1;"><g transform="translate(495.745631, 203.074585)"><path style="stroke:none" d="M 53.421875 4.046875 C 39.035156 4.046875 27.207031 0.445312 17.9375 -6.75 C 8.675781 -13.945312 4.046875 -23.476562 4.046875 -35.34375 C 4.046875 -47.21875 9.171875 -57.203125 19.421875 -65.296875 C 29.679688 -73.390625 45.15625 -78.519531 65.84375 -80.6875 L 92.5625 -83.921875 C 95.789062 -84.285156 98.394531 -85.320312 100.375 -87.03125 C 102.351562 -88.738281 103.34375 -91.03125 103.34375 -93.90625 C 103.34375 -99.84375 101.003906 -104.609375 96.328125 -108.203125 C 91.648438 -111.804688 85.625 -113.609375 78.25 -113.609375 C 69.976562 -113.609375 63.144531 -111.039062 57.75 -105.90625 C 52.351562 -100.78125 49.296875 -94.800781 48.578125 -87.96875 L 8.359375 -94.171875 C 9.265625 -103.710938 12.640625 -112.210938 18.484375 -119.671875 C 24.328125 -127.140625 32.285156 -132.988281 42.359375 -137.21875 C 52.441406 -141.445312 64.046875 -143.5625 77.171875 -143.5625 C 97.503906 -143.5625 113.695312 -138.566406 125.75 -128.578125 C 137.800781 -118.597656 143.828125 -104.972656 143.828125 -87.703125 L 143.828125 -34.265625 C 143.828125 -27.609375 146.164062 -24.28125 150.84375 -24.28125 C 154.800781 -24.28125 158.398438 -26.351562 161.640625 -30.5 L 171.34375 -8.640625 C 167.207031 -4.492188 161.859375 -1.34375 155.296875 0.8125 C 148.734375 2.96875 142.300781 4.046875 136 4.046875 C 127.726562 4.046875 120.625 1.800781 114.6875 -2.6875 C 108.75 -7.1875 105.328125 -12.585938 104.421875 -18.890625 L 103.890625 -23.75 L 103.625 -23.75 C 99.125 -15.46875 92.554688 -8.765625 83.921875 -3.640625 C 75.285156 1.484375 65.117188 4.046875 53.421875 4.046875 Z M 69.078125 -24.28125 C 78.796875 -24.28125 86.800781 -27.289062 93.09375 -33.3125 C 99.394531 -39.34375 102.546875 -47.035156 102.546875 -56.390625 L 102.546875 -62.0625 L 76.09375 -59.09375 C 64.582031 -57.832031 56.578125 -55.492188 52.078125 -52.078125 C 47.578125 -48.660156 45.328125 -44.703125 45.328125 -40.203125 C 45.328125 -35.523438 47.578125 -31.703125 52.078125 -28.734375 C 56.578125 -25.765625 62.242188 -24.28125 69.078125 -24.28125 Z M 69.078125 -24.28125 "/></g></g></g></g><g transform="matrix(1,0,0,1,141,311)"><g clip-path="url(#a9bd45bcda)"><g clip-rule="nonzero" clip-path="url(#bee84228dc)"><g style="fill:#ffffff;fill-opacity:1;"><g transform="translate(10.993721, 220.82145)"><path style="stroke:none" d="M 35.085938 3.050781 L -12.640625 -151.613281 L 51.851562 -151.613281 L 80.917969 -40.980469 L 70.910156 -38.351562 L 70.910156 -48.699219 L 71.1875 -48.699219 L 71.1875 -38.351562 L 61.335938 -41.519531 L 96.753906 -151.613281 L 151.019531 -151.613281 L 186.714844 -40.410156 L 176.859375 -37.25 L 176.859375 -47.59375 L 177.136719 -47.59375 L 177.136719 -37.25 L 167.128906 -39.875 L 196.472656 -151.613281 L 260.664062 -151.613281 L 211 10.347656 L 147.761719 10.347656 L 114.296875 -95.378906 L 124.160156 -98.5 L 124.160156 -88.15625 L 123.609375 -88.15625 L 123.609375 -98.5 L 133.488281 -95.429688 L 100.601562 10.347656 L 37.339844 10.347656 Z M 54.859375 -3.050781 L 44.972656 0 L 44.972656 -10.347656 L 92.984375 -10.347656 L 92.984375 0 L 83.101562 -3.070312 L 115.992188 -108.847656 L 131.738281 -108.847656 L 165.203125 -3.121094 L 155.339844 0 L 155.339844 -10.347656 L 203.347656 -10.347656 L 203.347656 0 L 193.457031 -3.035156 L 236.773438 -144.300781 L 246.667969 -141.269531 L 246.667969 -130.921875 L 204.453125 -130.921875 L 204.453125 -141.269531 L 214.460938 -138.640625 L 185.117188 -26.902344 L 169.316406 -26.902344 L 133.625 -138.105469 L 143.476562 -141.269531 L 143.476562 -130.921875 L 104.296875 -130.921875 L 104.296875 -141.269531 L 114.144531 -138.097656 L 78.726562 -28.003906 L 62.929688 -28.003906 L 33.863281 -138.640625 L 43.871094 -141.269531 L 43.871094 -130.921875 L 1.378906 -130.921875 L 1.378906 -141.269531 L 11.265625 -144.320312 Z M 54.859375 -3.050781 "/></g></g></g><g style="fill:#ffffff;fill-opacity:1;"><g transform="translate(259.028493, 220.82145)"><path style="stroke:none" d="M 33.109375 -150.234375 C 22.976562 -150.234375 14.609375 -153.402344 8.011719 -159.738281 C 1.289062 -166.191406 -2.070312 -174.472656 -2.070312 -184.585938 C -2.070312 -194.882812 1.289062 -203.257812 8.011719 -209.710938 C 14.609375 -216.046875 22.976562 -219.214844 33.109375 -219.214844 C 43.425781 -219.214844 51.886719 -216.046875 58.484375 -209.710938 C 65.203125 -203.257812 68.566406 -194.882812 68.566406 -184.585938 C 68.566406 -174.472656 65.203125 -166.191406 58.484375 -159.738281 C 51.886719 -153.402344 43.425781 -150.234375 33.109375 -150.234375 Z M 33.109375 -170.929688 C 37.875 -170.929688 41.558594 -172.175781 44.15625 -174.667969 C 46.632812 -177.046875 47.871094 -180.351562 47.871094 -184.585938 C 47.871094 -189.003906 46.632812 -192.402344 44.15625 -194.78125 C 41.558594 -197.273438 37.875 -198.519531 33.109375 -198.519531 C 28.527344 -198.519531 24.9375 -197.273438 22.339844 -194.78125 C 19.863281 -192.402344 18.625 -189.003906 18.625 -184.585938 C 18.625 -180.351562 19.863281 -177.046875 22.339844 -174.667969 C 24.9375 -172.175781 28.527344 -170.929688 33.109375 -170.929688 Z M 1.792969 0 L 1.792969 -151.613281 L 64.425781 -151.613281 L 64.425781 10.347656 L 1.792969 10.347656 Z M 22.488281 0 L 12.140625 0 L 12.140625 -10.347656 L 54.078125 -10.347656 L 54.078125 0 L 43.730469 0 L 43.730469 -141.269531 L 54.078125 -141.269531 L 54.078125 -130.921875 L 12.140625 -130.921875 L 12.140625 -141.269531 L 22.488281 -141.269531 Z M 22.488281 0 "/></g></g><g style="fill:#ffffff;fill-opacity:1;"><g transform="translate(325.520581, 220.82145)"><path style="stroke:none" d="M -4.277344 0 L -4.277344 -40.980469 L 79.378906 -117.449219 L 86.359375 -109.8125 L 86.359375 -99.46875 L -1.515625 -99.46875 L -1.515625 -151.613281 L 145.269531 -151.613281 L 145.269531 -100.289062 L 61.613281 -23.816406 L 54.632812 -31.453125 L 54.632812 -41.800781 L 148.027344 -41.800781 L 148.027344 10.347656 L -4.277344 10.347656 Z M 16.417969 0 L 6.070312 0 L 6.070312 -10.347656 L 137.679688 -10.347656 L 137.679688 0 L 127.335938 0 L 127.335938 -31.453125 L 137.679688 -31.453125 L 137.679688 -21.105469 L 27.976562 -21.105469 L 127.941406 -112.484375 L 134.921875 -104.847656 L 124.574219 -104.847656 L 124.574219 -141.269531 L 134.921875 -141.269531 L 134.921875 -130.921875 L 8.828125 -130.921875 L 8.828125 -141.269531 L 19.175781 -141.269531 L 19.175781 -109.8125 L 8.828125 -109.8125 L 8.828125 -120.160156 L 113.015625 -120.160156 L 13.050781 -28.785156 L 6.070312 -36.421875 L 16.417969 -36.421875 Z M 16.417969 0 "/></g></g><g style="fill:#dd4e53;fill-opacity:1;"><g transform="translate(10.993721, 220.82145)"><path style="stroke:none" d="M 44.96875 0 L 1.375 -141.265625 L 43.875 -141.265625 L 70.90625 -38.359375 L 71.1875 -38.359375 L 104.296875 -141.265625 L 143.484375 -141.265625 L 176.859375 -37.25 L 177.140625 -37.25 L 204.453125 -141.265625 L 246.671875 -141.265625 L 203.359375 0 L 155.34375 0 L 124.171875 -98.5 L 123.609375 -98.5 L 92.984375 0 Z M 44.96875 0 "/></g></g><g style="fill:#dd4e53;fill-opacity:1;"><g transform="translate(259.028493, 220.82145)"><path style="stroke:none" d="M 33.109375 -160.59375 C 25.753906 -160.59375 19.773438 -162.796875 15.171875 -167.203125 C 10.578125 -171.617188 8.28125 -177.414062 8.28125 -184.59375 C 8.28125 -191.945312 10.578125 -197.832031 15.171875 -202.25 C 19.773438 -206.664062 25.753906 -208.875 33.109375 -208.875 C 40.648438 -208.875 46.71875 -206.664062 51.3125 -202.25 C 55.914062 -197.832031 58.21875 -191.945312 58.21875 -184.59375 C 58.21875 -177.414062 55.914062 -171.617188 51.3125 -167.203125 C 46.71875 -162.796875 40.648438 -160.59375 33.109375 -160.59375 Z M 12.140625 0 L 12.140625 -141.265625 L 54.078125 -141.265625 L 54.078125 0 Z M 12.140625 0 "/></g></g><g style="fill:#dd4e53;fill-opacity:1;"><g transform="translate(325.520581, 220.82145)"><path style="stroke:none" d="M 6.0625 0 L 6.0625 -36.421875 L 86.359375 -109.8125 L 8.828125 -109.8125 L 8.828125 -141.265625 L 134.921875 -141.265625 L 134.921875 -104.84375 L 54.625 -31.453125 L 137.6875 -31.453125 L 137.6875 0 Z M 6.0625 0 "/></g></g></g></g><g transform="matrix(1,0,0,1,599,385)"><g clip-path="url(#b915505e8f)"><g style="fill:#162b4a;fill-opacity:1;"><g transform="translate(14.471932, 0.345611)"><path style="stroke:none" d="M -0.640625 5.140625 C -0.640625 4.242188 -0.363281 3.519531 0.1875 2.96875 C 0.738281 2.414062 1.460938 2.140625 2.359375 2.140625 C 3.210938 2.140625 3.914062 2.414062 4.46875 2.96875 C 5.019531 3.519531 5.296875 4.242188 5.296875 5.140625 C 5.296875 6.035156 5.019531 6.765625 4.46875 7.328125 C 3.914062 7.898438 3.210938 8.1875 2.359375 8.1875 C 1.460938 8.1875 0.738281 7.898438 0.1875 7.328125 C -0.363281 6.765625 -0.640625 6.035156 -0.640625 5.140625 Z M -0.640625 5.140625 "/></g></g><g style="fill:#162b4a;fill-opacity:1;"><g transform="translate(14.471932, 6.927819)"><path style="stroke:none" d="M 0 9.53125 L 27.046875 0.53125 L 27.046875 4.8125 L 4.015625 12.046875 L 4.015625 12.109375 L 27.046875 19.21875 L 27.046875 24.3125 L 3.96875 31.546875 L 3.96875 31.59375 L 27.046875 38.765625 L 27.046875 43 L 0 34.109375 L 0 28.859375 L 22.75 21.796875 L 22.75 21.6875 L 0 14.828125 Z M 0 9.53125 "/></g></g><g style="fill:#162b4a;fill-opacity:1;"><g transform="translate(14.471932, 49.372799)"><path style="stroke:none" d="M -1.078125 16.015625 C -1.078125 13.117188 -0.472656 10.585938 0.734375 8.421875 C 1.953125 6.265625 3.648438 4.585938 5.828125 3.390625 C 8.015625 2.203125 10.570312 1.609375 13.5 1.609375 C 16.457031 1.609375 19.023438 2.203125 21.203125 3.390625 C 23.378906 4.585938 25.070312 6.265625 26.28125 8.421875 C 27.5 10.585938 28.109375 13.117188 28.109375 16.015625 C 28.109375 18.941406 27.5 21.484375 26.28125 23.640625 C 25.070312 25.796875 23.378906 27.472656 21.203125 28.671875 C 19.023438 29.867188 16.457031 30.46875 13.5 30.46875 C 10.570312 30.46875 8.015625 29.867188 5.828125 28.671875 C 3.648438 27.472656 1.953125 25.796875 0.734375 23.640625 C -0.472656 21.484375 -1.078125 18.941406 -1.078125 16.015625 Z M 2.625 16.015625 C 2.625 19.148438 3.613281 21.65625 5.59375 23.53125 C 7.570312 25.40625 10.207031 26.34375 13.5 26.34375 C 16.78125 26.34375 19.410156 25.40625 21.390625 23.53125 C 23.367188 21.65625 24.359375 19.148438 24.359375 16.015625 C 24.359375 12.867188 23.367188 10.359375 21.390625 8.484375 C 19.410156 6.609375 16.78125 5.671875 13.5 5.671875 C 10.207031 5.671875 7.570312 6.609375 5.59375 8.484375 C 3.613281 10.359375 2.625 12.867188 2.625 16.015625 Z M 2.625 16.015625 "/></g></g><g style="fill:#162b4a;fill-opacity:1;"><g transform="translate(14.471932, 81.434305)"><path style="stroke:none" d="M 28.171875 14.40625 C 28.171875 16.726562 27.4375 18.628906 25.96875 20.109375 C 24.507812 21.585938 22.421875 22.453125 19.703125 22.703125 L 18.53125 19.171875 C 20.414062 18.953125 21.859375 18.367188 22.859375 17.421875 C 23.859375 16.484375 24.359375 15.28125 24.359375 13.8125 C 24.359375 11.632812 23.519531 9.910156 21.84375 8.640625 C 20.164062 7.378906 17.847656 6.75 14.890625 6.75 L 0 6.75 L 0 2.671875 L 27.046875 2.671875 L 27.046875 6.15625 L 22.8125 6.53125 L 22.8125 6.59375 C 24.457031 7.332031 25.757812 8.390625 26.71875 9.765625 C 27.6875 11.140625 28.171875 12.6875 28.171875 14.40625 Z M 28.171875 14.40625 "/></g></g><g style="fill:#162b4a;fill-opacity:1;"><g transform="translate(14.471932, 105.19942)"><path style="stroke:none" d="M 0 2.671875 L 39.359375 2.671875 L 39.359375 6.75 L 14.828125 6.75 L 14.828125 6.796875 L 27.046875 18.265625 L 27.046875 23.671875 L 16.390625 13.4375 L 0 24.578125 L 0 19.65625 L 13.4375 10.65625 L 9.375 6.75 L 0 6.75 Z M 0 2.671875 "/></g></g><g style="fill:#162b4a;fill-opacity:1;"><g transform="translate(14.471932, 128.375262)"><path style="stroke:none" d="M -1.078125 13.875 C -1.078125 11.625 -0.703125 9.5625 0.046875 7.6875 C 0.796875 5.8125 1.859375 4.285156 3.234375 3.109375 C 4.609375 1.929688 6.257812 1.253906 8.1875 1.078125 L 9 5.09375 C 7.144531 5.269531 5.617188 6.175781 4.421875 7.8125 C 3.222656 9.457031 2.625 11.476562 2.625 13.875 C 2.625 15.976562 3.066406 17.75 3.953125 19.1875 C 4.847656 20.632812 5.992188 21.359375 7.390625 21.359375 C 8.421875 21.359375 9.273438 20.84375 9.953125 19.8125 C 10.640625 18.78125 11.210938 17.117188 11.671875 14.828125 L 12.53125 10.546875 C 13.132812 7.722656 14.023438 5.675781 15.203125 4.40625 C 16.378906 3.144531 17.953125 2.515625 19.921875 2.515625 C 21.492188 2.546875 22.894531 2.988281 24.125 3.84375 C 25.351562 4.707031 26.320312 5.890625 27.03125 7.390625 C 27.75 8.890625 28.109375 10.601562 28.109375 12.53125 C 28.109375 15.382812 27.421875 17.789062 26.046875 19.75 C 24.671875 21.71875 22.878906 22.953125 20.671875 23.453125 L 19.59375 19.546875 C 21.019531 19.367188 22.195312 18.628906 23.125 17.328125 C 24.0625 16.023438 24.53125 14.40625 24.53125 12.46875 C 24.53125 10.757812 24.082031 9.34375 23.1875 8.21875 C 22.289062 7.09375 21.273438 6.515625 20.140625 6.484375 C 19.140625 6.484375 18.332031 6.910156 17.71875 7.765625 C 17.113281 8.617188 16.613281 9.972656 16.21875 11.828125 L 15.375 16.21875 C 14.6875 19.394531 13.742188 21.707031 12.546875 23.15625 C 11.359375 24.601562 9.765625 25.328125 7.765625 25.328125 C 6.085938 25.328125 4.578125 24.828125 3.234375 23.828125 C 1.898438 22.828125 0.847656 21.460938 0.078125 19.734375 C -0.691406 18.003906 -1.078125 16.050781 -1.078125 13.875 Z M -1.078125 13.875 "/></g></g></g></g></g></svg>