<svg xmlns="http://www.w3.org/2000/svg" xmlns:xlink="http://www.w3.org/1999/xlink" width="1024" zoomAndPan="magnify" viewBox="0 0 768 187.499995" height="250" preserveAspectRatio="xMidYMid meet" version="1.2"><defs/><g id="02e2a2ee02"><g style="fill:#162b4a;fill-opacity:1;"><g transform="translate(-2.724572, 138.3275)"><path style="stroke:none" d="M 7.96875 0 L 7.96875 -103.109375 L 50.390625 -103.109375 C 68.253906 -103.109375 82.007812 -98.664062 91.65625 -89.78125 C 101.3125 -80.90625 106.140625 -68.160156 106.140625 -51.546875 C 106.140625 -34.941406 101.3125 -22.195312 91.65625 -13.3125 C 82.007812 -4.4375 68.253906 0 50.390625 0 Z M 32 -19.84375 L 50.390625 -19.84375 C 60.335938 -19.84375 67.988281 -22.566406 73.34375 -28.015625 C 78.707031 -33.472656 81.390625 -41.316406 81.390625 -51.546875 C 81.390625 -61.878906 78.707031 -69.769531 73.34375 -75.21875 C 67.988281 -80.675781 60.335938 -83.40625 50.390625 -83.40625 L 32 -83.40625 Z M 32 -19.84375 "/></g></g><g style="fill:#162b4a;fill-opacity:1;"><g transform="translate(107.757657, 138.3275)"><path style="stroke:none" d="M 28.671875 2.171875 C 20.953125 2.171875 14.601562 0.242188 9.625 -3.609375 C 4.65625 -7.472656 2.171875 -12.59375 2.171875 -18.96875 C 2.171875 -25.34375 4.921875 -30.703125 10.421875 -35.046875 C 15.929688 -39.390625 24.234375 -42.140625 35.328125 -43.296875 L 49.671875 -45.03125 C 51.410156 -45.226562 52.8125 -45.785156 53.875 -46.703125 C 54.9375 -47.617188 55.46875 -48.847656 55.46875 -50.390625 C 55.46875 -53.578125 54.210938 -56.132812 51.703125 -58.0625 C 49.191406 -60 45.957031 -60.96875 42 -60.96875 C 37.550781 -60.96875 33.878906 -59.59375 30.984375 -56.84375 C 28.085938 -54.09375 26.445312 -50.878906 26.0625 -47.203125 L 4.484375 -50.546875 C 4.972656 -55.660156 6.785156 -60.21875 9.921875 -64.21875 C 13.054688 -68.226562 17.328125 -71.367188 22.734375 -73.640625 C 28.140625 -75.910156 34.367188 -77.046875 41.421875 -77.046875 C 52.328125 -77.046875 61.015625 -74.363281 67.484375 -69 C 73.953125 -63.644531 77.1875 -56.332031 77.1875 -47.0625 L 77.1875 -18.390625 C 77.1875 -14.816406 78.441406 -13.03125 80.953125 -13.03125 C 83.078125 -13.03125 85.007812 -14.140625 86.75 -16.359375 L 91.953125 -4.640625 C 89.734375 -2.410156 86.859375 -0.71875 83.328125 0.4375 C 79.804688 1.59375 76.359375 2.171875 72.984375 2.171875 C 68.546875 2.171875 64.734375 0.96875 61.546875 -1.4375 C 58.359375 -3.851562 56.523438 -6.753906 56.046875 -10.140625 L 55.75 -12.75 L 55.609375 -12.75 C 53.191406 -8.300781 49.664062 -4.703125 45.03125 -1.953125 C 40.394531 0.796875 34.941406 2.171875 28.671875 2.171875 Z M 37.078125 -13.03125 C 42.285156 -13.03125 46.578125 -14.644531 49.953125 -17.875 C 53.335938 -21.113281 55.03125 -25.242188 55.03125 -30.265625 L 55.03125 -33.3125 L 40.84375 -31.71875 C 34.65625 -31.039062 30.351562 -29.785156 27.9375 -27.953125 C 25.53125 -26.117188 24.328125 -23.992188 24.328125 -21.578125 C 24.328125 -19.066406 25.53125 -17.015625 27.9375 -15.421875 C 30.351562 -13.828125 33.398438 -13.03125 37.078125 -13.03125 Z M 37.078125 -13.03125 "/></g></g><g style="fill:#162b4a;fill-opacity:1;"><g transform="translate(190.292818, 138.3275)"><path style="stroke:none" d="M 43.4375 2.890625 C 34.5625 2.890625 27.539062 0.429688 22.375 -4.484375 C 17.207031 -9.410156 14.625 -16.070312 14.625 -24.46875 L 14.625 -57.34375 L 0.71875 -57.34375 L 0.71875 -74.140625 L 14.625 -74.140625 L 14.625 -94.5625 L 36.78125 -99.34375 L 36.78125 -74.140625 L 66.171875 -74.140625 L 66.171875 -57.34375 L 36.78125 -57.34375 L 36.78125 -27.953125 C 36.78125 -23.890625 37.890625 -20.703125 40.109375 -18.390625 C 42.328125 -16.078125 45.082031 -14.921875 48.375 -14.921875 C 54.9375 -14.921875 59.953125 -18.101562 63.421875 -24.46875 L 70.09375 -10.578125 C 67.476562 -6.421875 63.734375 -3.132812 58.859375 -0.71875 C 53.984375 1.6875 48.84375 2.890625 43.4375 2.890625 Z M 43.4375 2.890625 "/></g></g><g style="fill:#162b4a;fill-opacity:1;"><g transform="translate(262.837547, 138.3275)"><path style="stroke:none" d="M 28.671875 2.171875 C 20.953125 2.171875 14.601562 0.242188 9.625 -3.609375 C 4.65625 -7.472656 2.171875 -12.59375 2.171875 -18.96875 C 2.171875 -25.34375 4.921875 -30.703125 10.421875 -35.046875 C 15.929688 -39.390625 24.234375 -42.140625 35.328125 -43.296875 L 49.671875 -45.03125 C 51.410156 -45.226562 52.8125 -45.785156 53.875 -46.703125 C 54.9375 -47.617188 55.46875 -48.847656 55.46875 -50.390625 C 55.46875 -53.578125 54.210938 -56.132812 51.703125 -58.0625 C 49.191406 -60 45.957031 -60.96875 42 -60.96875 C 37.550781 -60.96875 33.878906 -59.59375 30.984375 -56.84375 C 28.085938 -54.09375 26.445312 -50.878906 26.0625 -47.203125 L 4.484375 -50.546875 C 4.972656 -55.660156 6.785156 -60.21875 9.921875 -64.21875 C 13.054688 -68.226562 17.328125 -71.367188 22.734375 -73.640625 C 28.140625 -75.910156 34.367188 -77.046875 41.421875 -77.046875 C 52.328125 -77.046875 61.015625 -74.363281 67.484375 -69 C 73.953125 -63.644531 77.1875 -56.332031 77.1875 -47.0625 L 77.1875 -18.390625 C 77.1875 -14.816406 78.441406 -13.03125 80.953125 -13.03125 C 83.078125 -13.03125 85.007812 -14.140625 86.75 -16.359375 L 91.953125 -4.640625 C 89.734375 -2.410156 86.859375 -0.71875 83.328125 0.4375 C 79.804688 1.59375 76.359375 2.171875 72.984375 2.171875 C 68.546875 2.171875 64.734375 0.96875 61.546875 -1.4375 C 58.359375 -3.851562 56.523438 -6.753906 56.046875 -10.140625 L 55.75 -12.75 L 55.609375 -12.75 C 53.191406 -8.300781 49.664062 -4.703125 45.03125 -1.953125 C 40.394531 0.796875 34.941406 2.171875 28.671875 2.171875 Z M 37.078125 -13.03125 C 42.285156 -13.03125 46.578125 -14.644531 49.953125 -17.875 C 53.335938 -21.113281 55.03125 -25.242188 55.03125 -30.265625 L 55.03125 -33.3125 L 40.84375 -31.71875 C 34.65625 -31.039062 30.351562 -29.785156 27.9375 -27.953125 C 25.53125 -26.117188 24.328125 -23.992188 24.328125 -21.578125 C 24.328125 -19.066406 25.53125 -17.015625 27.9375 -15.421875 C 30.351562 -13.828125 33.398438 -13.03125 37.078125 -13.03125 Z M 37.078125 -13.03125 "/></g></g><g style="fill:#dd4e53;fill-opacity:1;"><g transform="translate(354.795812, 138.3275)"><path style="stroke:none" d="M 25.78125 0 L 1.453125 -73.125 L 13.03125 -73.125 L 32.578125 -10.859375 L 32.734375 -10.859375 L 51.984375 -73.125 L 65.75 -73.125 L 85.296875 -10.71875 L 85.4375 -10.71875 L 104.84375 -73.125 L 116.28125 -73.125 L 92.25 0 L 78.046875 0 L 58.9375 -61.546875 L 58.65625 -61.546875 L 40.109375 0 Z M 25.78125 0 "/></g></g><g style="fill:#dd4e53;fill-opacity:1;"><g transform="translate(472.518029, 138.3275)"><path style="stroke:none" d="M 13.90625 -87.328125 C 11.488281 -87.328125 9.53125 -88.070312 8.03125 -89.5625 C 6.539062 -91.0625 5.796875 -93.019531 5.796875 -95.4375 C 5.796875 -97.84375 6.539062 -99.769531 8.03125 -101.21875 C 9.53125 -102.664062 11.488281 -103.390625 13.90625 -103.390625 C 16.3125 -103.390625 18.285156 -102.664062 19.828125 -101.21875 C 21.378906 -99.769531 22.15625 -97.84375 22.15625 -95.4375 C 22.15625 -93.019531 21.378906 -91.0625 19.828125 -89.5625 C 18.285156 -88.070312 16.3125 -87.328125 13.90625 -87.328125 Z M 8.25 0 L 8.25 -73.125 L 19.265625 -73.125 L 19.265625 0 Z M 8.25 0 "/></g></g><g style="fill:#dd4e53;fill-opacity:1;"><g transform="translate(500.464391, 138.3275)"><path style="stroke:none" d="M 2.890625 0 L 2.890625 -12.171875 L 55.171875 -63 L 4.34375 -63 L 4.34375 -73.125 L 67.1875 -73.125 L 67.1875 -60.828125 L 14.765625 -9.984375 L 68.640625 -9.984375 L 68.640625 0 Z M 2.890625 0 "/></g></g><g style="fill:#162b4a;fill-opacity:1;"><g transform="translate(576.72591, 137.089392)"><path style="stroke:none" d="M 3.90625 0.8125 C 2.875 0.8125 2.039062 0.507812 1.40625 -0.09375 C 0.78125 -0.707031 0.46875 -1.507812 0.46875 -2.5 C 0.46875 -3.664062 0.847656 -4.640625 1.609375 -5.421875 C 2.378906 -6.210938 3.347656 -6.609375 4.515625 -6.609375 C 5.546875 -6.609375 6.375 -6.289062 7 -5.65625 C 7.632812 -5.03125 7.953125 -4.222656 7.953125 -3.234375 C 7.953125 -2.066406 7.570312 -1.097656 6.8125 -0.328125 C 6.050781 0.429688 5.082031 0.8125 3.90625 0.8125 Z M 3.90625 0.8125 "/></g></g><g style="fill:#162b4a;fill-opacity:1;"><g transform="translate(584.95146, 137.089392)"><path style="stroke:none" d="M 8.5625 0 L 3.4375 -34.0625 L 8.625 -34.0625 L 12.46875 -5.0625 L 12.546875 -5.0625 L 25.359375 -34.0625 L 31.828125 -34.0625 L 35.671875 -4.984375 L 35.734375 -4.984375 L 48.625 -34.0625 L 54.015625 -34.0625 L 38.296875 0 L 31.703125 0 L 27.921875 -28.65625 L 27.859375 -28.65625 L 15.234375 0 Z M 8.5625 0 "/></g></g><g style="fill:#162b4a;fill-opacity:1;"><g transform="translate(635.590719, 137.089392)"><path style="stroke:none" d="M 16.515625 1.21875 C 11.890625 1.21875 8.257812 -0.0820312 5.625 -2.6875 C 3 -5.300781 1.6875 -8.832031 1.6875 -13.28125 C 1.6875 -16.289062 2.164062 -19.125 3.125 -21.78125 C 4.09375 -24.4375 5.460938 -26.773438 7.234375 -28.796875 C 9.015625 -30.816406 11.128906 -32.398438 13.578125 -33.546875 C 16.035156 -34.691406 18.75 -35.265625 21.71875 -35.265625 C 26.34375 -35.265625 29.96875 -33.945312 32.59375 -31.3125 C 35.226562 -28.6875 36.546875 -25.148438 36.546875 -20.703125 C 36.546875 -17.691406 36.0625 -14.867188 35.09375 -12.234375 C 34.132812 -9.609375 32.765625 -7.28125 30.984375 -5.25 C 29.210938 -3.226562 27.097656 -1.644531 24.640625 -0.5 C 22.191406 0.644531 19.484375 1.21875 16.515625 1.21875 Z M 16.65625 -3.375 C 19.664062 -3.375 22.269531 -4.179688 24.46875 -5.796875 C 26.675781 -7.421875 28.382812 -9.535156 29.59375 -12.140625 C 30.8125 -14.742188 31.421875 -17.53125 31.421875 -20.5 C 31.421875 -23.644531 30.554688 -26.128906 28.828125 -27.953125 C 27.097656 -29.773438 24.679688 -30.6875 21.578125 -30.6875 C 18.609375 -30.6875 16.007812 -29.875 13.78125 -28.25 C 11.5625 -26.632812 9.84375 -24.535156 8.625 -21.953125 C 7.414062 -19.367188 6.8125 -16.570312 6.8125 -13.5625 C 6.8125 -10.40625 7.675781 -7.914062 9.40625 -6.09375 C 11.132812 -4.28125 13.550781 -3.375 16.65625 -3.375 Z M 16.65625 -3.375 "/></g></g><g style="fill:#162b4a;fill-opacity:1;"><g transform="translate(673.823192, 137.089392)"><path style="stroke:none" d="M 20.03125 -35.34375 C 22.90625 -35.34375 25.09375 -34.382812 26.59375 -32.46875 C 28.101562 -30.5625 28.722656 -27.875 28.453125 -24.40625 L 23.40625 -23.265625 C 23.582031 -25.785156 23.253906 -27.648438 22.421875 -28.859375 C 21.585938 -30.078125 20.34375 -30.6875 18.6875 -30.6875 C 16.070312 -30.6875 13.898438 -29.570312 12.171875 -27.34375 C 10.441406 -25.113281 9.257812 -22.09375 8.625 -18.28125 L 5.734375 0 L 0.671875 0 L 6.0625 -34.0625 L 10.390625 -34.0625 L 9.984375 -29.0625 L 10.046875 -29.0625 C 11.265625 -31.082031 12.75 -32.632812 14.5 -33.71875 C 16.25 -34.800781 18.09375 -35.34375 20.03125 -35.34375 Z M 20.03125 -35.34375 "/></g></g><g style="fill:#162b4a;fill-opacity:1;"><g transform="translate(702.480691, 137.089392)"><path style="stroke:none" d="M 0.671875 0 L 8.5 -49.5625 L 13.5625 -49.5625 L 8.765625 -19.28125 L 8.828125 -19.28125 L 24.6875 -34.0625 L 31.421875 -34.0625 L 17 -20.765625 L 26.96875 0 L 21.3125 0 L 13.21875 -17.203125 L 7.75 -12.203125 L 5.734375 0 Z M 0.671875 0 "/></g></g><g style="fill:#162b4a;fill-opacity:1;"><g transform="translate(730.733348, 137.089392)"><path style="stroke:none" d="M 14.296875 1.21875 C 11.460938 1.21875 8.953125 0.734375 6.765625 -0.234375 C 4.585938 -1.203125 2.925781 -2.570312 1.78125 -4.34375 C 0.632812 -6.125 0.15625 -8.25 0.34375 -10.71875 L 5.390625 -11.390625 C 5.210938 -8.960938 5.953125 -7.003906 7.609375 -5.515625 C 9.273438 -4.035156 11.617188 -3.296875 14.640625 -3.296875 C 16.347656 -3.296875 17.929688 -3.519531 19.390625 -3.96875 C 20.847656 -4.425781 22.015625 -5.113281 22.890625 -6.03125 C 23.765625 -6.957031 24.203125 -8.117188 24.203125 -9.515625 C 24.203125 -10.722656 23.753906 -11.707031 22.859375 -12.46875 C 21.960938 -13.238281 20.503906 -13.894531 18.484375 -14.4375 L 12.75 -15.984375 C 9.914062 -16.703125 7.820312 -17.703125 6.46875 -18.984375 C 5.125 -20.265625 4.453125 -21.984375 4.453125 -24.140625 C 4.453125 -26.296875 5.023438 -28.207031 6.171875 -29.875 C 7.316406 -31.539062 8.878906 -32.851562 10.859375 -33.8125 C 12.835938 -34.78125 15.0625 -35.265625 17.53125 -35.265625 C 21.125 -35.265625 23.988281 -34.34375 26.125 -32.5 C 28.257812 -30.65625 29.351562 -28.316406 29.40625 -25.484375 L 24.484375 -24.484375 C 24.566406 -26.328125 23.957031 -27.84375 22.65625 -29.03125 C 21.351562 -30.21875 19.488281 -30.8125 17.0625 -30.8125 C 14.851562 -30.8125 13.03125 -30.269531 11.59375 -29.1875 C 10.15625 -28.113281 9.4375 -26.65625 9.4375 -24.8125 C 9.4375 -22.695312 11.257812 -21.144531 14.90625 -20.15625 L 20.359375 -18.6875 C 23.421875 -17.914062 25.660156 -16.851562 27.078125 -15.5 C 28.492188 -14.15625 29.203125 -12.359375 29.203125 -10.109375 C 29.203125 -7.816406 28.535156 -5.816406 27.203125 -4.109375 C 25.878906 -2.398438 24.09375 -1.082031 21.84375 -0.15625 C 19.601562 0.757812 17.085938 1.21875 14.296875 1.21875 Z M 14.296875 1.21875 "/></g></g></g></svg>